SplineFontDB: 3.2
FontName: Minecrafter
FullName: Minecrafter
FamilyName: Minecrafter
Weight: Book
Version: 4.002 2014
ItalicAngle: 0
UnderlinePosition: 0
UnderlineWidth: 0
Ascent: 750
Descent: 250
InvalidEm: 0
sfntRevision: 0x00040083
LayerCount: 2
Layer: 0 1 "Back" 1
Layer: 1 1 "Fore" 0
XUID: [1021 812 246683827 17554]
StyleMap: 0x0040
FSType: 4
OS2Version: 3
OS2_WeightWidthSlopeOnly: 0
OS2_UseTypoMetrics: 0
CreationTime: 1401090727
ModificationTime: 1714859138
PfmFamily: 81
TTFWeight: 400
TTFWidth: 5
LineGap: 0
VLineGap: 0
Panose: 0 0 0 0 0 0 0 0 0 0
OS2TypoAscent: 750
OS2TypoAOffset: 0
OS2TypoDescent: -250
OS2TypoDOffset: 0
OS2TypoLinegap: 0
OS2WinAscent: 790
OS2WinAOffset: 0
OS2WinDescent: 68
OS2WinDOffset: 0
HheadAscent: 750
HheadAOffset: 0
HheadDescent: -250
HheadDOffset: 0
OS2SubXSize: 700
OS2SubYSize: 650
OS2SubXOff: 0
OS2SubYOff: 140
OS2SupXSize: 700
OS2SupYSize: 650
OS2SupXOff: 0
OS2SupYOff: 477
OS2StrikeYSize: 50
OS2StrikeYPos: 250
OS2Vendor: 'pyrs'
OS2CodePages: 00000001.00000000
OS2UnicodeRanges: 00000003.00000000.00000000.00000000
DEI: 91125
ShortTable: maxp 16
  1
  0
  66
  271
  19
  0
  0
  1
  0
  0
  0
  0
  0
  0
  0
  0
EndShort
LangName: 1033 "" "" "Regular" "4.002;pyrs;Minecrafter" "" "Version 4.002 2014"
Encoding: UnicodeBmp
UnicodeInterp: none
NameList: AGL For New Fonts
DisplaySize: -48
AntiAlias: 1
FitToEm: 0
WinInfo: 38 38 13
BeginChars: 65539 68

StartChar: nonmarkingreturn
Encoding: 65538 -1 2
Width: 1284
GlyphClass: 1
Flags: W
LayerCount: 2
Fore
SplineSet
315 130 m 1,0,-1
 327 117 l 1,1,-1
 327 12 l 1,2,-1
 315 0 l 1,3,-1
 229 0 l 1,4,-1
 229 130 l 1,5,-1
 315 130 l 1,0,-1
438 130 m 1,6,-1
 438 96 l 1,7,-1
 389 96 l 1,8,-1
 389 83 l 1,9,-1
 438 83 l 1,10,-1
 438 46 l 1,11,-1
 389 46 l 1,12,-1
 389 34 l 1,13,-1
 438 34 l 1,14,-1
 438 0 l 1,15,-1
 346 0 l 1,16,-1
 346 130 l 1,17,-1
 438 130 l 1,6,-1
519 34 m 1,18,-1
 519 46 l 1,19,-1
 463 46 l 1,20,-1
 463 130 l 1,21,-1
 562 130 l 1,22,-1
 562 96 l 1,23,-1
 500 96 l 1,24,-1
 500 83 l 1,25,-1
 562 83 l 1,26,-1
 562 0 l 1,27,-1
 463 0 l 1,28,-1
 463 34 l 1,29,-1
 519 34 l 1,18,-1
611 130 m 1,30,-1
 611 0 l 1,31,-1
 580 0 l 1,32,-1
 580 130 l 1,33,-1
 611 130 l 1,30,-1
636 117 m 1,34,-1
 648 130 l 1,35,-1
 741 130 l 1,36,-1
 741 96 l 1,37,-1
 673 96 l 1,38,-1
 673 37 l 1,39,-1
 707 37 l 1,40,41
 707 38 707 38 709 40 c 128,-1,42
 711 42 711 42 710 43 c 0,43,44
 708 45 708 45 701 47 c 128,-1,45
 694 49 694 49 691 49 c 1,46,-1
 691 80 l 1,47,-1
 741 80 l 1,48,-1
 741 0 l 1,49,-1
 648 0 l 1,50,-1
 636 12 l 1,51,-1
 636 117 l 1,34,-1
796 130 m 2,52,53
 797 128 797 128 799 123.5 c 128,-1,54
 801 119 801 119 803 117 c 0,55,56
 804 115 804 115 811.5 108 c 128,-1,57
 819 101 819 101 821 99 c 256,58,59
 823 97 823 97 826 92.5 c 128,-1,60
 829 88 829 88 830 86 c 1,61,-1
 830 130 l 1,62,-1
 871 130 l 1,63,-1
 871 0 l 1,64,-1
 833 0 l 1,65,66
 833 2 833 2 831 6 c 128,-1,67
 829 10 829 10 827 12 c 256,68,69
 825 14 825 14 818 21.5 c 128,-1,70
 811 29 811 29 809 31 c 256,71,72
 807 33 807 33 804 37 c 128,-1,73
 801 41 801 41 800 43 c 1,74,-1
 800 0 l 1,75,-1
 759 0 l 1,76,-1
 759 130 l 1,77,-1
 796 130 l 2,52,53
945 34 m 1,78,-1
 945 46 l 1,79,-1
 889 46 l 1,80,-1
 889 130 l 1,81,-1
 988 130 l 1,82,-1
 988 96 l 1,83,-1
 932 96 l 1,84,-1
 932 83 l 1,85,-1
 988 83 l 1,86,-1
 988 0 l 1,87,-1
 889 0 l 1,88,-1
 889 34 l 1,89,-1
 945 34 l 1,78,-1
272 37 m 1,90,-1
 284 37 l 1,91,-1
 284 93 l 1,92,-1
 272 93 l 1,93,-1
 272 37 l 1,90,-1
80 340 m 1,94,95
 80 337 80 337 82.5 330 c 128,-1,96
 85 323 85 323 87 321 c 0,97,98
 88 320 88 320 96 318 c 128,-1,99
 104 316 104 316 105 315 c 256,100,101
 106 314 106 314 108 306 c 128,-1,102
 110 298 110 298 111 296 c 0,103,104
 113 295 113 295 114 295 c 2,105,-1
 117 295 l 1,106,-1
 121 295 l 2,107,108
 122 295 122 295 124 296 c 0,109,110
 125 298 125 298 127 306 c 128,-1,111
 129 314 129 314 130 315 c 256,112,113
 131 316 131 316 139 318 c 128,-1,114
 147 320 147 320 148 321 c 0,115,116
 150 323 150 323 152.5 330 c 128,-1,117
 155 337 155 337 154 340 c 1,118,-1
 204 340 l 1,119,-1
 204 160 l 1,120,-1
 151 160 l 1,121,-1
 151 231 l 1,122,123
 150 231 150 231 146.5 233.5 c 128,-1,124
 143 236 143 236 142 235 c 0,125,126
 140 233 140 233 138 228.5 c 128,-1,127
 136 224 136 224 136 222 c 1,128,-1
 99 222 l 1,129,130
 99 224 99 224 97 228.5 c 128,-1,131
 95 233 95 233 93 235 c 0,132,133
 91 236 91 236 88 233.5 c 128,-1,134
 85 231 85 231 83 231 c 1,135,-1
 83 160 l 1,136,-1
 31 160 l 1,137,-1
 31 340 l 1,138,-1
 80 340 l 1,94,95
358 340 m 1,139,-1
 358 160 l 1,140,-1
 306 160 l 1,141,-1
 306 204 l 1,142,-1
 281 204 l 1,143,-1
 281 160 l 1,144,-1
 229 160 l 1,145,-1
 229 340 l 1,146,-1
 358 340 l 1,139,-1
506 340 m 2,147,148
 507 338 507 338 509 333.5 c 128,-1,149
 511 329 511 329 512 327 c 0,150,151
 513 326 513 326 515 324 c 128,-1,152
 517 322 517 322 519 321 c 2,153,-1
 519 179 l 2,154,155
 517 178 517 178 515 176 c 128,-1,156
 513 174 513 174 512 173 c 0,157,158
 511 171 511 171 509 166.5 c 128,-1,159
 507 162 507 162 506 160 c 2,160,-1
 383 160 l 1,161,-1
 383 340 l 1,162,-1
 506 340 l 2,147,148
673 340 m 1,163,-1
 673 225 l 1,164,-1
 596 225 l 1,165,-1
 596 160 l 1,166,-1
 543 160 l 1,167,-1
 543 340 l 1,168,-1
 673 340 l 1,163,-1
747 340 m 1,169,-1
 747 160 l 1,170,-1
 698 160 l 1,171,-1
 698 340 l 1,172,-1
 747 340 l 1,169,-1
784 222 m 2,173,174
 785 223 785 223 790 228 c 128,-1,175
 795 233 795 233 796 235 c 0,176,177
 798 235 798 235 803 237.5 c 128,-1,178
 808 240 808 240 809 241 c 2,179,-1
 809 245 l 2,180,181
 809 247 809 247 809.5 248 c 128,-1,182
 810 249 810 249 810 250 c 256,183,184
 810 251 810 251 809.5 252 c 128,-1,185
 809 253 809 253 809 255 c 2,186,-1
 809 259 l 2,187,188
 808 260 808 260 803 262.5 c 128,-1,189
 798 265 798 265 796 265 c 0,190,191
 795 267 795 267 790 272 c 128,-1,192
 785 277 785 277 784 278 c 2,193,-1
 772 284 l 1,194,-1
 772 340 l 1,195,-1
 821 340 l 2,196,197
 822 338 822 338 824 333.5 c 128,-1,198
 826 329 826 329 827 327 c 2,199,-1
 852 302 l 1,200,-1
 855 302 l 1,201,-1
 858 302 l 1,202,-1
 883 327 l 2,203,204
 884 329 884 329 886 333.5 c 128,-1,205
 888 338 888 338 889 340 c 2,206,-1
 938 340 l 1,207,-1
 938 284 l 2,208,209
 937 283 937 283 932.5 281 c 128,-1,210
 928 279 928 279 926 278 c 0,211,212
 923 275 923 275 915.5 268 c 128,-1,213
 908 261 908 261 908 259 c 1,214,215
 907 259 907 259 906.5 255.5 c 128,-1,216
 906 252 906 252 906 250 c 256,217,218
 906 248 906 248 906.5 244.5 c 128,-1,219
 907 241 907 241 908 241 c 1,220,221
 908 239 908 239 915.5 232 c 128,-1,222
 923 225 923 225 926 222 c 0,223,224
 928 221 928 221 932.5 219 c 128,-1,225
 937 217 937 217 938 216 c 2,226,-1
 938 160 l 1,227,-1
 889 160 l 2,228,229
 888 162 888 162 886 166.5 c 128,-1,230
 884 171 884 171 883 173 c 2,231,-1
 858 198 l 1,232,-1
 855 198 l 1,233,-1
 852 198 l 1,234,-1
 827 173 l 2,235,236
 826 171 826 171 824 166.5 c 128,-1,237
 822 162 822 162 821 160 c 2,238,-1
 772 160 l 1,239,-1
 772 216 l 1,240,-1
 784 222 l 2,173,174
1093 340 m 1,241,-1
 1093 293 l 1,242,-1
 1019 293 l 1,243,-1
 1019 275 l 1,244,-1
 1093 275 l 1,245,-1
 1093 225 l 1,246,-1
 1019 225 l 1,247,-1
 1019 207 l 1,248,-1
 1093 207 l 1,249,-1
 1093 160 l 1,250,-1
 963 160 l 1,251,-1
 963 340 l 1,252,-1
 1093 340 l 1,241,-1
1170 340 m 1,253,-1
 1170 207 l 1,254,-1
 1247 207 l 1,255,-1
 1247 160 l 1,256,-1
 1117 160 l 1,257,-1
 1117 340 l 1,258,-1
 1170 340 l 1,253,-1
438 210 m 1,259,-1
 463 210 l 1,260,-1
 463 290 l 1,261,-1
 438 290 l 1,262,-1
 438 210 l 1,259,-1
284 253 m 1,263,-1
 303 253 l 1,264,-1
 303 296 l 1,265,-1
 284 296 l 1,266,-1
 284 253 l 1,263,-1
599 278 m 1,267,-1
 617 278 l 1,268,-1
 617 290 l 1,269,-1
 599 290 l 1,270,-1
 599 278 l 1,267,-1
EndSplineSet
Validated: 1
EndChar

StartChar: Y
Encoding: 89 89 4
Width: 802
GlyphClass: 1
Flags: W
LayerCount: 2
Fore
SplineSet
195 281 m 1,0,-1
 195 355 l 1,1,-1
 121 355 l 1,2,-1
 121 429 l 1,3,-1
 31 429 l 1,4,-1
 31 778 l 1,5,-1
 287 778 l 1,6,-1
 287 590 l 1,7,-1
 361 590 l 1,8,-1
 361 519 l 1,9,-1
 441 519 l 1,10,-1
 441 590 l 1,11,-1
 516 590 l 1,12,-1
 516 778 l 1,13,-1
 772 778 l 1,14,-1
 772 429 l 1,15,-1
 682 429 l 1,16,-1
 682 355 l 1,17,-1
 608 355 l 1,18,-1
 608 281 l 1,19,-1
 534 281 l 1,20,-1
 534 -6 l 1,21,-1
 269 -6 l 1,22,-1
 269 281 l 1,23,-1
 195 281 l 1,0,-1
EndSplineSet
Validated: 1
EndChar

StartChar: A
Encoding: 65 65 5
Width: 679
GlyphClass: 1
Flags: W
LayerCount: 2
Fore
SplineSet
636 784 m 1,0,-1
 636 0 l 1,1,-1
 380 0 l 1,2,-1
 380 210 l 1,3,-1
 293 210 l 1,4,-1
 293 0 l 1,5,-1
 37 0 l 1,6,-1
 37 784 l 1,7,-1
 636 784 l 1,0,-1
296 401 m 1,8,-1
 377 401 l 1,9,-1
 377 599 l 1,10,-1
 296 599 l 1,11,-1
 296 401 l 1,8,-1
EndSplineSet
Validated: 1
EndChar

StartChar: B
Encoding: 98 98 6
Width: 679
GlyphClass: 1
Flags: W
LayerCount: 2
Fore
SplineSet
636 784 m 1,0,-1
 636 410 l 1,1,-1
 568 410 l 1,2,-1
 568 373 l 1,3,-1
 636 373 l 1,4,-1
 636 0 l 1,5,-1
 37 0 l 1,6,-1
 37 784 l 1,7,-1
 636 784 l 1,0,-1
296 210 m 1,8,-1
 377 210 l 1,9,-1
 377 284 l 1,10,-1
 296 284 l 1,11,-1
 296 210 l 1,8,-1
296 500 m 1,12,-1
 377 500 l 1,13,-1
 377 574 l 1,14,-1
 296 574 l 1,15,-1
 296 500 l 1,12,-1
EndSplineSet
Validated: 1
EndChar

StartChar: c
Encoding: 99 99 7
Width: 710
GlyphClass: 1
Flags: W
LayerCount: 2
Fore
SplineSet
679 784 m 1,0,-1
 679 577 l 1,1,-1
 296 577 l 1,2,-1
 296 207 l 1,3,-1
 679 207 l 1,4,-1
 679 0 l 1,5,-1
 37 0 l 1,6,-1
 37 784 l 1,7,-1
 679 784 l 1,0,-1
EndSplineSet
Validated: 1
EndChar

StartChar: D
Encoding: 100 100 8
Width: 704
GlyphClass: 1
Flags: W
LayerCount: 2
Fore
SplineSet
589 784 m 1,0,-1
 589 713 l 1,1,-1
 660 713 l 1,2,-1
 660 71 l 1,3,-1
 589 71 l 1,4,-1
 589 0 l 1,5,-1
 37 0 l 1,6,-1
 37 784 l 1,7,-1
 589 784 l 1,0,-1
296 210 m 1,8,-1
 401 210 l 1,9,-1
 401 574 l 1,10,-1
 296 574 l 1,11,-1
 296 210 l 1,8,-1
EndSplineSet
Validated: 1
EndChar

StartChar: E
Encoding: 101 101 9
Width: 667
GlyphClass: 1
Flags: W
LayerCount: 2
Fore
SplineSet
630 784 m 1,0,-1
 630 577 l 1,1,-1
 296 577 l 1,2,-1
 296 497 l 1,3,-1
 630 497 l 1,4,-1
 630 287 l 1,5,-1
 296 287 l 1,6,-1
 296 207 l 1,7,-1
 630 207 l 1,8,-1
 630 0 l 1,9,-1
 37 0 l 1,10,-1
 37 784 l 1,11,-1
 630 784 l 1,0,-1
EndSplineSet
Validated: 1
EndChar

StartChar: F
Encoding: 102 102 10
Width: 660
GlyphClass: 1
Flags: W
LayerCount: 2
Fore
SplineSet
630 784 m 1,0,-1
 630 577 l 1,1,-1
 296 577 l 1,2,-1
 296 497 l 1,3,-1
 630 497 l 1,4,-1
 630 287 l 1,5,-1
 293 287 l 1,6,-1
 293 0 l 1,7,-1
 37 0 l 1,8,-1
 37 784 l 1,9,-1
 630 784 l 1,0,-1
EndSplineSet
Validated: 1
EndChar

StartChar: g
Encoding: 103 103 11
Width: 735
GlyphClass: 1
Flags: W
LayerCount: 2
Fore
SplineSet
704 784 m 1,0,-1
 704 577 l 1,1,-1
 296 577 l 1,2,-1
 296 210 l 1,3,-1
 497 210 l 1,4,-1
 497 352 l 1,5,-1
 704 352 l 1,6,-1
 704 0 l 1,7,-1
 37 0 l 1,8,-1
 37 784 l 1,9,-1
 704 784 l 1,0,-1
EndSplineSet
Validated: 1
EndChar

StartChar: H
Encoding: 104 104 12
Width: 716
GlyphClass: 1
Flags: W
LayerCount: 2
Fore
SplineSet
287 784 m 1,0,-1
 287 500 l 1,1,-1
 423 500 l 1,2,-1
 423 784 l 1,3,-1
 673 784 l 1,4,-1
 673 0 l 1,5,-1
 423 0 l 1,6,-1
 423 284 l 1,7,-1
 287 284 l 1,8,-1
 287 0 l 1,9,-1
 37 0 l 1,10,-1
 37 784 l 1,11,-1
 287 784 l 1,0,-1
EndSplineSet
Validated: 1
EndChar

StartChar: I
Encoding: 105 105 13
Width: 327
GlyphClass: 1
Flags: W
LayerCount: 2
Fore
SplineSet
284 784 m 1,0,-1
 284 0 l 1,1,-1
 37 0 l 1,2,-1
 37 784 l 1,3,-1
 284 784 l 1,0,-1
EndSplineSet
Validated: 1
EndChar

StartChar: J
Encoding: 106 106 14
Width: 648
GlyphClass: 1
Flags: W
LayerCount: 2
Fore
SplineSet
355 207 m 1,0,-1
 355 784 l 1,1,-1
 605 784 l 1,2,-1
 605 0 l 1,3,-1
 19 0 l 1,4,-1
 19 207 l 1,5,-1
 355 207 l 1,0,-1
EndSplineSet
Validated: 1
EndChar

StartChar: K
Encoding: 107 107 15
Width: 685
GlyphClass: 1
Flags: W
LayerCount: 2
Fore
SplineSet
287 784 m 1,0,-1
 287 580 l 1,1,-1
 324 580 l 1,2,-1
 324 688 l 1,3,-1
 398 688 l 1,4,-1
 398 784 l 1,5,-1
 648 784 l 1,6,-1
 648 509 l 1,7,-1
 565 509 l 1,8,-1
 565 435 l 1,9,-1
 488 435 l 1,10,-1
 488 349 l 1,11,-1
 565 349 l 1,12,-1
 565 275 l 1,13,-1
 648 275 l 1,14,-1
 648 0 l 1,15,-1
 398 0 l 1,16,-1
 398 96 l 1,17,-1
 324 96 l 1,18,-1
 324 204 l 1,19,-1
 287 204 l 1,20,-1
 287 0 l 1,21,-1
 37 0 l 1,22,-1
 37 784 l 1,23,-1
 287 784 l 1,0,-1
EndSplineSet
Validated: 1
EndChar

StartChar: L
Encoding: 108 108 16
Width: 648
GlyphClass: 1
Flags: W
LayerCount: 2
Fore
SplineSet
287 784 m 1,0,-1
 287 207 l 1,1,-1
 623 207 l 1,2,-1
 623 0 l 1,3,-1
 37 0 l 1,4,-1
 37 784 l 1,5,-1
 287 784 l 1,0,-1
EndSplineSet
Validated: 1
EndChar

StartChar: m
Encoding: 109 109 17
Width: 864
GlyphClass: 1
Flags: W
LayerCount: 2
Fore
SplineSet
287 784 m 1,0,-1
 287 688 l 1,1,-1
 361 688 l 1,2,-1
 361 580 l 1,3,-1
 497 580 l 1,4,-1
 497 688 l 1,5,-1
 571 688 l 1,6,-1
 571 784 l 1,7,-1
 821 784 l 1,8,-1
 821 0 l 1,9,-1
 571 0 l 1,10,-1
 571 333 l 1,11,-1
 522 333 l 1,12,-1
 522 241 l 1,13,-1
 336 241 l 1,14,-1
 336 333 l 1,15,-1
 287 333 l 1,16,-1
 287 0 l 1,17,-1
 37 0 l 1,18,-1
 37 784 l 1,19,-1
 287 784 l 1,0,-1
EndSplineSet
Validated: 1
EndChar

StartChar: n
Encoding: 110 110 18
Width: 741
GlyphClass: 1
Flags: W
LayerCount: 2
Fore
SplineSet
287 784 m 1,0,-1
 287 657 l 1,1,-1
 386 657 l 1,2,-1
 386 525 l 1,3,-1
 447 525 l 1,4,-1
 447 784 l 1,5,-1
 697 784 l 1,6,-1
 697 0 l 1,7,-1
 447 0 l 1,8,-1
 447 127 l 1,9,-1
 349 127 l 1,10,-1
 349 259 l 1,11,-1
 287 259 l 1,12,-1
 287 0 l 1,13,-1
 37 0 l 1,14,-1
 37 784 l 1,15,-1
 287 784 l 1,0,-1
EndSplineSet
Validated: 1
EndChar

StartChar: o
Encoding: 111 111 19
Width: 759
GlyphClass: 1
Flags: W
LayerCount: 2
Fore
SplineSet
716 784 m 1,0,-1
 716 0 l 1,1,-1
 37 0 l 1,2,-1
 37 784 l 1,3,-1
 716 784 l 1,0,-1
290 210 m 1,4,-1
 463 210 l 1,5,-1
 463 574 l 1,6,-1
 290 574 l 1,7,-1
 290 210 l 1,4,-1
EndSplineSet
Validated: 1
EndChar

StartChar: P
Encoding: 112 112 20
Width: 667
GlyphClass: 1
Flags: W
LayerCount: 2
Fore
SplineSet
636 784 m 1,0,-1
 636 225 l 1,1,-1
 293 225 l 1,2,-1
 293 0 l 1,3,-1
 37 0 l 1,4,-1
 37 784 l 1,5,-1
 636 784 l 1,0,-1
296 414 m 1,6,-1
 377 414 l 1,7,-1
 377 599 l 1,8,-1
 296 599 l 1,9,-1
 296 414 l 1,6,-1
EndSplineSet
Validated: 1
EndChar

StartChar: q
Encoding: 113 113 21
Width: 759
GlyphClass: 1
Flags: W
LayerCount: 2
Fore
SplineSet
37 -3 m 1,0,-1
 37 784 l 1,1,-1
 716 784 l 1,2,-1
 716 -62 l 1,3,-1
 466 -62 l 1,4,-1
 466 -3 l 1,5,-1
 37 -3 l 1,0,-1
290 210 m 1,6,-1
 463 210 l 1,7,-1
 463 574 l 1,8,-1
 290 574 l 1,9,-1
 290 210 l 1,6,-1
EndSplineSet
Validated: 1
EndChar

StartChar: R
Encoding: 114 114 22
Width: 679
GlyphClass: 1
Flags: W
LayerCount: 2
Fore
SplineSet
636 784 m 1,0,-1
 636 336 l 1,1,-1
 568 336 l 1,2,-1
 568 299 l 1,3,-1
 636 299 l 1,4,-1
 636 0 l 1,5,-1
 380 0 l 1,6,-1
 380 284 l 1,7,-1
 293 284 l 1,8,-1
 293 0 l 1,9,-1
 37 0 l 1,10,-1
 37 784 l 1,11,-1
 636 784 l 1,0,-1
296 500 m 1,12,-1
 377 500 l 1,13,-1
 377 574 l 1,14,-1
 296 574 l 1,15,-1
 296 500 l 1,12,-1
EndSplineSet
Validated: 1
EndChar

StartChar: S
Encoding: 115 115 23
Width: 691
GlyphClass: 1
Flags: W
LayerCount: 2
Fore
SplineSet
401 207 m 1,0,-1
 401 287 l 1,1,-1
 37 287 l 1,2,-1
 37 784 l 1,3,-1
 654 784 l 1,4,-1
 654 577 l 1,5,-1
 290 577 l 1,6,-1
 290 497 l 1,7,-1
 654 497 l 1,8,-1
 654 0 l 1,9,-1
 37 0 l 1,10,-1
 37 207 l 1,11,-1
 401 207 l 1,0,-1
EndSplineSet
Validated: 1
EndChar

StartChar: T
Encoding: 116 116 24
Width: 660
GlyphClass: 1
Flags: W
LayerCount: 2
Fore
SplineSet
31 577 m 1,0,-1
 31 784 l 1,1,-1
 630 784 l 1,2,-1
 630 577 l 1,3,-1
 460 577 l 1,4,-1
 460 0 l 1,5,-1
 201 0 l 1,6,-1
 201 577 l 1,7,-1
 31 577 l 1,0,-1
EndSplineSet
Validated: 1
EndChar

StartChar: u
Encoding: 117 117 25
Width: 716
GlyphClass: 1
Flags: W
LayerCount: 2
Fore
SplineSet
287 784 m 1,0,-1
 287 210 l 1,1,-1
 423 210 l 1,2,-1
 423 784 l 1,3,-1
 673 784 l 1,4,-1
 673 0 l 1,5,-1
 37 0 l 1,6,-1
 37 784 l 1,7,-1
 287 784 l 1,0,-1
EndSplineSet
Validated: 1
EndChar

StartChar: V
Encoding: 118 118 26
Width: 679
GlyphClass: 1
Flags: W
LayerCount: 2
Fore
SplineSet
90 120 m 1,0,-1
 90 262 l 1,1,-1
 31 262 l 1,2,-1
 31 784 l 1,3,-1
 281 784 l 1,4,-1
 281 210 l 1,5,-1
 392 210 l 1,6,-1
 392 784 l 1,7,-1
 642 784 l 1,8,-1
 642 262 l 1,9,-1
 583 262 l 1,10,-1
 583 120 l 1,11,-1
 497 120 l 1,12,-1
 497 0 l 1,13,-1
 176 0 l 1,14,-1
 176 120 l 1,15,-1
 90 120 l 1,0,-1
EndSplineSet
Validated: 1
EndChar

StartChar: w
Encoding: 119 119 27
Width: 864
GlyphClass: 1
Flags: W
LayerCount: 2
Fore
SplineSet
287 784 m 1,0,-1
 287 407 l 1,1,-1
 336 407 l 1,2,-1
 336 500 l 1,3,-1
 522 500 l 1,4,-1
 522 407 l 1,5,-1
 571 407 l 1,6,-1
 571 784 l 1,7,-1
 821 784 l 1,8,-1
 821 0 l 1,9,-1
 571 0 l 1,10,-1
 571 71 l 1,11,-1
 497 71 l 1,12,-1
 497 160 l 1,13,-1
 361 160 l 1,14,-1
 361 71 l 1,15,-1
 287 71 l 1,16,-1
 287 0 l 1,17,-1
 37 0 l 1,18,-1
 37 784 l 1,19,-1
 287 784 l 1,0,-1
EndSplineSet
Validated: 1
EndChar

StartChar: x
Encoding: 120 120 28
Width: 679
GlyphClass: 1
Flags: W
LayerCount: 2
Fore
SplineSet
117 355 m 1,0,-1
 117 429 l 1,1,-1
 37 429 l 1,2,-1
 37 784 l 1,3,-1
 293 784 l 1,4,-1
 293 543 l 1,5,-1
 380 543 l 1,6,-1
 380 784 l 1,7,-1
 636 784 l 1,8,-1
 636 429 l 1,9,-1
 556 429 l 1,10,-1
 556 355 l 1,11,-1
 636 355 l 1,12,-1
 636 0 l 1,13,-1
 380 0 l 1,14,-1
 380 241 l 1,15,-1
 293 241 l 1,16,-1
 293 0 l 1,17,-1
 37 0 l 1,18,-1
 37 355 l 1,19,-1
 117 355 l 1,0,-1
EndSplineSet
Validated: 1
EndChar

StartChar: y
Encoding: 121 121 29
Width: 660
GlyphClass: 1
Flags: W
LayerCount: 2
Fore
SplineSet
114 355 m 1,0,-1
 114 429 l 1,1,-1
 31 429 l 1,2,-1
 31 784 l 1,3,-1
 287 784 l 1,4,-1
 287 500 l 1,5,-1
 374 500 l 1,6,-1
 374 784 l 1,7,-1
 630 784 l 1,8,-1
 630 429 l 1,9,-1
 546 429 l 1,10,-1
 546 355 l 1,11,-1
 466 355 l 1,12,-1
 466 0 l 1,13,-1
 207 0 l 1,14,-1
 207 355 l 1,15,-1
 114 355 l 1,0,-1
EndSplineSet
Validated: 1
EndChar

StartChar: z
Encoding: 122 122 30
Width: 698
GlyphClass: 1
Flags: W
LayerCount: 2
Fore
SplineSet
120 349 m 1,0,-1
 120 423 l 1,1,-1
 207 423 l 1,2,-1
 207 497 l 1,3,-1
 401 497 l 1,4,-1
 401 577 l 1,5,-1
 37 577 l 1,6,-1
 37 784 l 1,7,-1
 654 784 l 1,8,-1
 654 435 l 1,9,-1
 571 435 l 1,10,-1
 571 361 l 1,11,-1
 485 361 l 1,12,-1
 485 287 l 1,13,-1
 290 287 l 1,14,-1
 290 207 l 1,15,-1
 654 207 l 1,16,-1
 654 0 l 1,17,-1
 37 0 l 1,18,-1
 37 349 l 1,19,-1
 120 349 l 1,0,-1
EndSplineSet
Validated: 1
EndChar

StartChar: one
Encoding: 49 49 31
Width: 420
GlyphClass: 1
Flags: W
LayerCount: 2
Fore
SplineSet
25 485 m 1,0,-1
 25 688 l 1,1,-1
 71 688 l 1,2,-1
 71 738 l 1,3,-1
 121 738 l 1,4,-1
 121 784 l 1,5,-1
 377 784 l 1,6,-1
 377 0 l 1,7,-1
 121 0 l 1,8,-1
 121 485 l 1,9,-1
 25 485 l 1,0,-1
EndSplineSet
Validated: 1
EndChar

StartChar: two
Encoding: 50 50 32
Width: 704
GlyphClass: 1
Flags: W
LayerCount: 2
Fore
SplineSet
108 423 m 1,0,-1
 108 497 l 1,1,-1
 395 497 l 1,2,-1
 395 577 l 1,3,-1
 37 577 l 1,4,-1
 37 784 l 1,5,-1
 589 784 l 1,6,-1
 589 713 l 1,7,-1
 660 713 l 1,8,-1
 660 361 l 1,9,-1
 589 361 l 1,10,-1
 589 287 l 1,11,-1
 296 287 l 1,12,-1
 296 207 l 1,13,-1
 660 207 l 1,14,-1
 660 0 l 1,15,-1
 37 0 l 1,16,-1
 37 423 l 1,17,-1
 108 423 l 1,0,-1
EndSplineSet
Validated: 1
EndChar

StartChar: three
Encoding: 51 51 33
Width: 673
GlyphClass: 1
Flags: W
LayerCount: 2
Fore
SplineSet
370 207 m 1,0,-1
 370 287 l 1,1,-1
 37 287 l 1,2,-1
 37 497 l 1,3,-1
 370 497 l 1,4,-1
 370 577 l 1,5,-1
 37 577 l 1,6,-1
 37 790 l 1,7,-1
 565 790 l 1,8,-1
 565 713 l 1,9,-1
 636 713 l 1,10,-1
 636 410 l 1,11,-1
 593 410 l 1,12,-1
 593 373 l 1,13,-1
 636 373 l 1,14,-1
 636 71 l 1,15,-1
 565 71 l 1,16,-1
 565 0 l 1,17,-1
 37 0 l 1,18,-1
 37 207 l 1,19,-1
 370 207 l 1,0,-1
EndSplineSet
Validated: 1
EndChar

StartChar: four
Encoding: 52 52 34
Width: 667
GlyphClass: 1
Flags: W
LayerCount: 2
Fore
SplineSet
25 287 m 1,0,-1
 25 784 l 1,1,-1
 287 784 l 1,2,-1
 287 500 l 1,3,-1
 361 500 l 1,4,-1
 361 784 l 1,5,-1
 624 784 l 1,6,-1
 624 0 l 1,7,-1
 361 0 l 1,8,-1
 361 287 l 1,9,-1
 25 287 l 1,0,-1
EndSplineSet
Validated: 1
EndChar

StartChar: five
Encoding: 53 53 35
Width: 704
GlyphClass: 1
Flags: W
LayerCount: 2
Fore
SplineSet
389 207 m 1,0,-1
 389 287 l 1,1,-1
 108 287 l 1,2,-1
 108 361 l 1,3,-1
 37 361 l 1,4,-1
 37 784 l 1,5,-1
 660 784 l 1,6,-1
 660 577 l 1,7,-1
 302 577 l 1,8,-1
 302 497 l 1,9,-1
 589 497 l 1,10,-1
 589 423 l 1,11,-1
 660 423 l 1,12,-1
 660 71 l 1,13,-1
 589 71 l 1,14,-1
 589 0 l 1,15,-1
 37 0 l 1,16,-1
 37 207 l 1,17,-1
 389 207 l 1,0,-1
EndSplineSet
Validated: 1
EndChar

StartChar: six
Encoding: 54 54 36
Width: 673
GlyphClass: 1
Flags: W
LayerCount: 2
Fore
SplineSet
636 784 m 1,0,-1
 636 577 l 1,1,-1
 302 577 l 1,2,-1
 302 497 l 1,3,-1
 636 497 l 1,4,-1
 636 0 l 1,5,-1
 37 0 l 1,6,-1
 37 784 l 1,7,-1
 636 784 l 1,0,-1
302 210 m 1,8,-1
 370 210 l 1,9,-1
 370 284 l 1,10,-1
 302 284 l 1,11,-1
 302 210 l 1,8,-1
EndSplineSet
Validated: 1
EndChar

StartChar: seven
Encoding: 55 55 37
Width: 660
GlyphClass: 1
Flags: W
LayerCount: 2
Fore
SplineSet
19 577 m 1,0,-1
 19 784 l 1,1,-1
 618 784 l 1,2,-1
 618 0 l 1,3,-1
 355 0 l 1,4,-1
 355 577 l 1,5,-1
 19 577 l 1,0,-1
EndSplineSet
Validated: 1
EndChar

StartChar: eight
Encoding: 56 56 38
Width: 679
GlyphClass: 1
Flags: W
LayerCount: 2
Fore
SplineSet
80 373 m 1,0,-1
 80 410 l 1,1,-1
 37 410 l 1,2,-1
 37 784 l 1,3,-1
 636 784 l 1,4,-1
 636 410 l 1,5,-1
 593 410 l 1,6,-1
 593 373 l 1,7,-1
 636 373 l 1,8,-1
 636 0 l 1,9,-1
 37 0 l 1,10,-1
 37 373 l 1,11,-1
 80 373 l 1,0,-1
302 210 m 1,12,-1
 370 210 l 1,13,-1
 370 284 l 1,14,-1
 302 284 l 1,15,-1
 302 210 l 1,12,-1
302 500 m 1,16,-1
 370 500 l 1,17,-1
 370 574 l 1,18,-1
 302 574 l 1,19,-1
 302 500 l 1,16,-1
EndSplineSet
Validated: 1
EndChar

StartChar: nine
Encoding: 57 57 39
Width: 679
GlyphClass: 1
Flags: W
LayerCount: 2
Fore
SplineSet
370 207 m 1,0,-1
 370 287 l 1,1,-1
 37 287 l 1,2,-1
 37 784 l 1,3,-1
 636 784 l 1,4,-1
 636 0 l 1,5,-1
 37 0 l 1,6,-1
 37 207 l 1,7,-1
 370 207 l 1,0,-1
302 500 m 1,8,-1
 370 500 l 1,9,-1
 370 574 l 1,10,-1
 302 574 l 1,11,-1
 302 500 l 1,8,-1
EndSplineSet
Validated: 1
EndChar

StartChar: zero
Encoding: 48 48 40
Width: 679
GlyphClass: 1
Flags: W
LayerCount: 2
Fore
SplineSet
636 784 m 1,0,-1
 636 0 l 1,1,-1
 37 0 l 1,2,-1
 37 784 l 1,3,-1
 636 784 l 1,0,-1
302 210 m 1,4,-1
 370 210 l 1,5,-1
 370 574 l 1,6,-1
 302 574 l 1,7,-1
 302 210 l 1,4,-1
EndSplineSet
Validated: 1
EndChar

StartChar: U
Encoding: 85 85 41
Width: 710
GlyphClass: 1
Flags: W
LayerCount: 2
Fore
SplineSet
37 77 m 1,0,-1
 37 765 l 1,1,-1
 287 765 l 1,2,-1
 287 191 l 1,3,-1
 423 191 l 1,4,-1
 423 765 l 1,5,-1
 673 765 l 1,6,-1
 673 77 l 1,7,-1
 577 77 l 1,8,-1
 577 -19 l 1,9,-1
 133 -19 l 1,10,-1
 133 77 l 1,11,-1
 37 77 l 1,0,-1
EndSplineSet
Validated: 1
EndChar

StartChar: Q
Encoding: 81 81 42
Width: 809
GlyphClass: 1
Flags: W
LayerCount: 2
Fore
SplineSet
133 -9 m 1,0,-1
 133 89 l 1,1,-1
 37 89 l 1,2,-1
 37 682 l 1,3,-1
 133 682 l 1,4,-1
 133 778 l 1,5,-1
 620 778 l 1,6,-1
 620 682 l 1,7,-1
 719 682 l 1,8,-1
 719 182 l 1,9,-1
 772 182 l 1,10,-1
 772 -68 l 1,11,-1
 466 -68 l 1,12,-1
 466 -9 l 1,13,-1
 133 -9 l 1,0,-1
290 204 m 1,14,-1
 463 204 l 1,15,-1
 463 568 l 1,16,-1
 290 568 l 1,17,-1
 290 204 l 1,14,-1
EndSplineSet
Validated: 1
EndChar

StartChar: G
Encoding: 71 71 43
Width: 735
GlyphClass: 1
Flags: W
LayerCount: 2
Fore
SplineSet
37 90 m 1,0,-1
 37 682 l 1,1,-1
 133 682 l 1,2,-1
 133 778 l 1,3,-1
 704 778 l 1,4,-1
 704 571 l 1,5,-1
 296 571 l 1,6,-1
 296 204 l 1,7,-1
 497 204 l 1,8,-1
 497 346 l 1,9,-1
 704 346 l 1,10,-1
 704 -6 l 1,11,-1
 133 -6 l 1,12,-1
 133 90 l 1,13,-1
 37 90 l 1,0,-1
EndSplineSet
Validated: 1
EndChar

StartChar: C
Encoding: 67 67 44
Width: 704
GlyphClass: 1
Flags: W
LayerCount: 2
Fore
SplineSet
37 96 m 1,0,-1
 37 688 l 1,1,-1
 133 688 l 1,2,-1
 133 784 l 1,3,-1
 673 784 l 1,4,-1
 673 577 l 1,5,-1
 290 577 l 1,6,-1
 290 207 l 1,7,-1
 673 207 l 1,8,-1
 673 0 l 1,9,-1
 133 0 l 1,10,-1
 133 96 l 1,11,-1
 37 96 l 1,0,-1
EndSplineSet
Validated: 1
EndChar

StartChar: M
Encoding: 77 77 45
Width: 809
GlyphClass: 1
Flags: W
LayerCount: 2
Fore
SplineSet
287 784 m 1,0,-1
 287 688 l 1,1,-1
 386 688 l 1,2,-1
 386 599 l 1,3,-1
 423 599 l 1,4,-1
 423 688 l 1,5,-1
 522 688 l 1,6,-1
 522 784 l 1,7,-1
 765 784 l 1,8,-1
 765 0 l 1,9,-1
 522 0 l 1,10,-1
 522 333 l 1,11,-1
 478 333 l 1,12,-1
 478 247 l 1,13,-1
 324 247 l 1,14,-1
 324 333 l 1,15,-1
 287 333 l 1,16,-1
 287 0 l 1,17,-1
 37 0 l 1,18,-1
 37 784 l 1,19,-1
 287 784 l 1,0,-1
EndSplineSet
Validated: 1
EndChar

StartChar: N
Encoding: 78 78 46
Width: 809
GlyphClass: 1
Flags: W
LayerCount: 2
Fore
SplineSet
293 784 m 1,0,-1
 293 688 l 1,1,-1
 386 688 l 1,2,-1
 386 596 l 1,3,-1
 485 596 l 1,4,-1
 485 500 l 1,5,-1
 522 500 l 1,6,-1
 522 784 l 1,7,-1
 765 784 l 1,8,-1
 765 0 l 1,9,-1
 522 0 l 1,10,-1
 522 96 l 1,11,-1
 423 96 l 1,12,-1
 423 188 l 1,13,-1
 324 188 l 1,14,-1
 324 284 l 1,15,-1
 287 284 l 1,16,-1
 287 0 l 1,17,-1
 37 0 l 1,18,-1
 37 784 l 1,19,-1
 293 784 l 1,0,-1
EndSplineSet
Validated: 1
EndChar

StartChar: O
Encoding: 79 79 47
Width: 802
GlyphClass: 1
Flags: W
LayerCount: 2
Fore
SplineSet
37 96 m 1,0,-1
 37 688 l 1,1,-1
 127 688 l 1,2,-1
 127 784 l 1,3,-1
 670 784 l 1,4,-1
 670 688 l 1,5,-1
 765 688 l 1,6,-1
 765 96 l 1,7,-1
 670 96 l 1,8,-1
 670 0 l 1,9,-1
 127 0 l 1,10,-1
 127 96 l 1,11,-1
 37 96 l 1,0,-1
284 204 m 1,12,-1
 512 204 l 1,13,-1
 512 574 l 1,14,-1
 284 574 l 1,15,-1
 284 204 l 1,12,-1
EndSplineSet
Validated: 1
EndChar

StartChar: Z
Encoding: 90 90 48
Width: 698
GlyphClass: 1
Flags: W
LayerCount: 2
Fore
SplineSet
120 349 m 1,0,-1
 120 423 l 1,1,-1
 207 423 l 1,2,-1
 207 497 l 1,3,-1
 401 497 l 1,4,-1
 401 577 l 1,5,-1
 37 577 l 1,6,-1
 37 784 l 1,7,-1
 654 784 l 1,8,-1
 654 435 l 1,9,-1
 571 435 l 1,10,-1
 571 361 l 1,11,-1
 485 361 l 1,12,-1
 485 287 l 1,13,-1
 290 287 l 1,14,-1
 290 207 l 1,15,-1
 654 207 l 1,16,-1
 654 0 l 1,17,-1
 37 0 l 1,18,-1
 37 349 l 1,19,-1
 120 349 l 1,0,-1
EndSplineSet
Validated: 1
EndChar

StartChar: b
Encoding: 66 66 49
Width: 679
GlyphClass: 1
Flags: W
LayerCount: 2
Fore
SplineSet
636 784 m 1,0,-1
 636 410 l 1,1,-1
 568 410 l 1,2,-1
 568 373 l 1,3,-1
 636 373 l 1,4,-1
 636 0 l 1,5,-1
 37 0 l 1,6,-1
 37 784 l 1,7,-1
 636 784 l 1,0,-1
296 210 m 1,8,-1
 377 210 l 1,9,-1
 377 284 l 1,10,-1
 296 284 l 1,11,-1
 296 210 l 1,8,-1
296 500 m 1,12,-1
 377 500 l 1,13,-1
 377 574 l 1,14,-1
 296 574 l 1,15,-1
 296 500 l 1,12,-1
EndSplineSet
Validated: 1
EndChar

StartChar: d
Encoding: 68 68 50
Width: 704
GlyphClass: 1
Flags: W
LayerCount: 2
Fore
SplineSet
589 784 m 1,0,-1
 589 713 l 1,1,-1
 660 713 l 1,2,-1
 660 71 l 1,3,-1
 589 71 l 1,4,-1
 589 0 l 1,5,-1
 37 0 l 1,6,-1
 37 784 l 1,7,-1
 589 784 l 1,0,-1
296 210 m 1,8,-1
 401 210 l 1,9,-1
 401 574 l 1,10,-1
 296 574 l 1,11,-1
 296 210 l 1,8,-1
EndSplineSet
Validated: 1
EndChar

StartChar: e
Encoding: 69 69 51
Width: 667
GlyphClass: 1
Flags: W
LayerCount: 2
Fore
SplineSet
630 784 m 1,0,-1
 630 577 l 1,1,-1
 296 577 l 1,2,-1
 296 497 l 1,3,-1
 630 497 l 1,4,-1
 630 287 l 1,5,-1
 296 287 l 1,6,-1
 296 207 l 1,7,-1
 630 207 l 1,8,-1
 630 0 l 1,9,-1
 37 0 l 1,10,-1
 37 784 l 1,11,-1
 630 784 l 1,0,-1
EndSplineSet
Validated: 1
EndChar

StartChar: f
Encoding: 70 70 52
Width: 660
GlyphClass: 1
Flags: W
LayerCount: 2
Fore
SplineSet
630 784 m 1,0,-1
 630 577 l 1,1,-1
 296 577 l 1,2,-1
 296 497 l 1,3,-1
 630 497 l 1,4,-1
 630 287 l 1,5,-1
 293 287 l 1,6,-1
 293 0 l 1,7,-1
 37 0 l 1,8,-1
 37 784 l 1,9,-1
 630 784 l 1,0,-1
EndSplineSet
Validated: 1
EndChar

StartChar: h
Encoding: 72 72 53
Width: 716
GlyphClass: 1
Flags: W
LayerCount: 2
Fore
SplineSet
287 784 m 1,0,-1
 287 500 l 1,1,-1
 423 500 l 1,2,-1
 423 784 l 1,3,-1
 673 784 l 1,4,-1
 673 0 l 1,5,-1
 423 0 l 1,6,-1
 423 284 l 1,7,-1
 287 284 l 1,8,-1
 287 0 l 1,9,-1
 37 0 l 1,10,-1
 37 784 l 1,11,-1
 287 784 l 1,0,-1
EndSplineSet
Validated: 1
EndChar

StartChar: i
Encoding: 73 73 54
Width: 327
GlyphClass: 1
Flags: W
LayerCount: 2
Fore
SplineSet
284 784 m 1,0,-1
 284 0 l 1,1,-1
 37 0 l 1,2,-1
 37 784 l 1,3,-1
 284 784 l 1,0,-1
EndSplineSet
Validated: 1
EndChar

StartChar: j
Encoding: 74 74 55
Width: 648
GlyphClass: 1
Flags: W
LayerCount: 2
Fore
SplineSet
355 207 m 1,0,-1
 355 784 l 1,1,-1
 605 784 l 1,2,-1
 605 0 l 1,3,-1
 19 0 l 1,4,-1
 19 207 l 1,5,-1
 355 207 l 1,0,-1
EndSplineSet
Validated: 1
EndChar

StartChar: k
Encoding: 75 75 56
Width: 685
GlyphClass: 1
Flags: W
LayerCount: 2
Fore
SplineSet
287 784 m 1,0,-1
 287 580 l 1,1,-1
 324 580 l 1,2,-1
 324 688 l 1,3,-1
 398 688 l 1,4,-1
 398 784 l 1,5,-1
 648 784 l 1,6,-1
 648 509 l 1,7,-1
 565 509 l 1,8,-1
 565 435 l 1,9,-1
 488 435 l 1,10,-1
 488 349 l 1,11,-1
 565 349 l 1,12,-1
 565 275 l 1,13,-1
 648 275 l 1,14,-1
 648 0 l 1,15,-1
 398 0 l 1,16,-1
 398 96 l 1,17,-1
 324 96 l 1,18,-1
 324 204 l 1,19,-1
 287 204 l 1,20,-1
 287 0 l 1,21,-1
 37 0 l 1,22,-1
 37 784 l 1,23,-1
 287 784 l 1,0,-1
EndSplineSet
Validated: 1
EndChar

StartChar: l
Encoding: 76 76 57
Width: 648
GlyphClass: 1
Flags: W
LayerCount: 2
Fore
SplineSet
287 784 m 1,0,-1
 287 207 l 1,1,-1
 623 207 l 1,2,-1
 623 0 l 1,3,-1
 37 0 l 1,4,-1
 37 784 l 1,5,-1
 287 784 l 1,0,-1
EndSplineSet
Validated: 1
EndChar

StartChar: p
Encoding: 80 80 58
Width: 667
GlyphClass: 1
Flags: W
LayerCount: 2
Fore
SplineSet
636 784 m 1,0,-1
 636 225 l 1,1,-1
 293 225 l 1,2,-1
 293 0 l 1,3,-1
 37 0 l 1,4,-1
 37 784 l 1,5,-1
 636 784 l 1,0,-1
296 414 m 1,6,-1
 377 414 l 1,7,-1
 377 599 l 1,8,-1
 296 599 l 1,9,-1
 296 414 l 1,6,-1
EndSplineSet
Validated: 1
EndChar

StartChar: r
Encoding: 82 82 59
Width: 679
GlyphClass: 1
Flags: W
LayerCount: 2
Fore
SplineSet
636 784 m 1,0,-1
 636 336 l 1,1,-1
 568 336 l 1,2,-1
 568 299 l 1,3,-1
 636 299 l 1,4,-1
 636 0 l 1,5,-1
 380 0 l 1,6,-1
 380 284 l 1,7,-1
 293 284 l 1,8,-1
 293 0 l 1,9,-1
 37 0 l 1,10,-1
 37 784 l 1,11,-1
 636 784 l 1,0,-1
296 500 m 1,12,-1
 377 500 l 1,13,-1
 377 574 l 1,14,-1
 296 574 l 1,15,-1
 296 500 l 1,12,-1
EndSplineSet
Validated: 1
EndChar

StartChar: s
Encoding: 83 83 60
Width: 691
GlyphClass: 1
Flags: W
LayerCount: 2
Fore
SplineSet
401 207 m 1,0,-1
 401 287 l 1,1,-1
 37 287 l 1,2,-1
 37 784 l 1,3,-1
 654 784 l 1,4,-1
 654 577 l 1,5,-1
 290 577 l 1,6,-1
 290 497 l 1,7,-1
 654 497 l 1,8,-1
 654 0 l 1,9,-1
 37 0 l 1,10,-1
 37 207 l 1,11,-1
 401 207 l 1,0,-1
EndSplineSet
Validated: 1
EndChar

StartChar: t
Encoding: 84 84 61
Width: 660
GlyphClass: 1
Flags: W
LayerCount: 2
Fore
SplineSet
31 577 m 1,0,-1
 31 784 l 1,1,-1
 630 784 l 1,2,-1
 630 577 l 1,3,-1
 460 577 l 1,4,-1
 460 0 l 1,5,-1
 201 0 l 1,6,-1
 201 577 l 1,7,-1
 31 577 l 1,0,-1
EndSplineSet
Validated: 1
EndChar

StartChar: v
Encoding: 86 86 62
Width: 679
GlyphClass: 1
Flags: W
LayerCount: 2
Fore
SplineSet
90 120 m 1,0,-1
 90 262 l 1,1,-1
 31 262 l 1,2,-1
 31 784 l 1,3,-1
 281 784 l 1,4,-1
 281 210 l 1,5,-1
 392 210 l 1,6,-1
 392 784 l 1,7,-1
 642 784 l 1,8,-1
 642 262 l 1,9,-1
 583 262 l 1,10,-1
 583 120 l 1,11,-1
 497 120 l 1,12,-1
 497 0 l 1,13,-1
 176 0 l 1,14,-1
 176 120 l 1,15,-1
 90 120 l 1,0,-1
EndSplineSet
Validated: 1
EndChar

StartChar: a
Encoding: 97 97 63
Width: 679
GlyphClass: 1
Flags: W
LayerCount: 2
Fore
SplineSet
636 784 m 1,0,-1
 636 0 l 1,1,-1
 380 0 l 1,2,-1
 380 210 l 1,3,-1
 293 210 l 1,4,-1
 293 0 l 1,5,-1
 37 0 l 1,6,-1
 37 784 l 1,7,-1
 636 784 l 1,0,-1
247 377 m 1,8,-1
 281 377 l 1,9,-1
 281 420 l 1,10,-1
 392 420 l 1,11,-1
 392 377 l 1,12,-1
 426 377 l 1,13,-1
 426 509 l 1,14,-1
 380 509 l 1,15,-1
 380 556 l 1,16,-1
 293 556 l 1,17,-1
 293 509 l 1,18,-1
 247 509 l 1,19,-1
 247 377 l 1,8,-1
197 574 m 1,20,-1
 278 574 l 1,21,-1
 278 648 l 1,22,-1
 197 648 l 1,23,-1
 197 574 l 1,20,-1
395 574 m 1,24,-1
 475 574 l 1,25,-1
 475 648 l 1,26,-1
 395 648 l 1,27,-1
 395 574 l 1,24,-1
EndSplineSet
Validated: 1
EndChar

StartChar: X
Encoding: 88 88 64
Width: 815
GlyphClass: 1
Flags: W
LayerCount: 2
Fore
SplineSet
133 275 m 1,0,-1
 133 349 l 1,1,-1
 204 349 l 1,2,-1
 204 435 l 1,3,-1
 133 435 l 1,4,-1
 133 509 l 1,5,-1
 37 509 l 1,6,-1
 37 784 l 1,7,-1
 293 784 l 1,8,-1
 293 688 l 1,9,-1
 367 688 l 1,10,-1
 367 617 l 1,11,-1
 447 617 l 1,12,-1
 447 688 l 1,13,-1
 522 688 l 1,14,-1
 522 784 l 1,15,-1
 778 784 l 1,16,-1
 778 509 l 1,17,-1
 682 509 l 1,18,-1
 682 435 l 1,19,-1
 611 435 l 1,20,-1
 611 349 l 1,21,-1
 682 349 l 1,22,-1
 682 275 l 1,23,-1
 778 275 l 1,24,-1
 778 0 l 1,25,-1
 522 0 l 1,26,-1
 522 96 l 1,27,-1
 447 96 l 1,28,-1
 447 167 l 1,29,-1
 367 167 l 1,30,-1
 367 96 l 1,31,-1
 293 96 l 1,32,-1
 293 0 l 1,33,-1
 37 0 l 1,34,-1
 37 275 l 1,35,-1
 133 275 l 1,0,-1
EndSplineSet
Validated: 1
EndChar

StartChar: W
Encoding: 87 87 65
Width: 809
GlyphClass: 1
Flags: W
LayerCount: 2
Fore
SplineSet
287 784 m 1,0,-1
 287 451 l 1,1,-1
 324 451 l 1,2,-1
 324 537 l 1,3,-1
 478 537 l 1,4,-1
 478 451 l 1,5,-1
 522 451 l 1,6,-1
 522 784 l 1,7,-1
 765 784 l 1,8,-1
 765 0 l 1,9,-1
 522 0 l 1,10,-1
 522 96 l 1,11,-1
 423 96 l 1,12,-1
 423 185 l 1,13,-1
 386 185 l 1,14,-1
 386 96 l 1,15,-1
 287 96 l 1,16,-1
 287 0 l 1,17,-1
 37 0 l 1,18,-1
 37 784 l 1,19,-1
 287 784 l 1,0,-1
EndSplineSet
Validated: 1
EndChar

StartChar: hyphen
Encoding: 45 45 66
Width: 1185
VWidth: 2048
Flags: WO
LayerCount: 2
Back
Fore
SplineSet
295 260 m 5,0,-1
 295 383 l 5,1,-1
 952 383 l 5,2,-1
 952 260 l 5,3,-1
 295 260 l 5,0,-1
EndSplineSet
EndChar

